<svg id="splitsvg" version="1.1" xmlns="http://www.w3.org/2000/svg" xmlns:xlink="http://www.w3.org/1999/xlink" width="1380" height="400"><g id="svgg"><path id="path0" d="M205.908 300.408 C 205.197 300.770,204.237 301.688,203.774 302.448 C 203.312 303.208,202.283 304.808,201.488 306.004 C 200.693 307.200,199.896 308.738,199.717 309.422 C 199.538 310.107,198.671 311.507,197.789 312.533 L 196.187 314.400 195.293 313.176 C 190.714 306.900,189.287 305.600,186.980 305.600 C 183.264 305.600,180.726 309.947,183.229 312.024 C 185.737 314.105,185.104 314.701,182.031 313.153 C 178.998 311.625,170.778 308.800,169.364 308.800 C 168.551 308.800,168.179 309.998,167.701 314.156 L 167.366 317.067 171.999 318.523 C 174.548 319.325,178.429 320.972,180.625 322.184 L 184.617 324.388 183.242 325.823 C 181.397 327.749,181.330 331.043,183.101 332.707 C 184.664 334.175,187.249 334.219,188.533 332.800 C 189.064 332.213,189.723 331.733,189.997 331.733 C 190.271 331.733,191.840 330.535,193.484 329.070 L 196.472 326.407 197.604 327.470 C 198.226 328.055,199.001 328.533,199.326 328.533 C 199.652 328.533,201.045 329.853,202.424 331.467 C 206.394 336.114,210.667 335.120,210.667 329.549 C 210.667 327.096,206.357 321.853,203.527 320.863 C 202.420 320.475,202.243 320.816,205.640 316.786 C 206.512 315.751,207.893 313.591,208.710 311.986 C 209.526 310.380,210.643 308.347,211.191 307.467 C 214.094 302.809,210.532 298.050,205.908 300.408 M140.155 309.128 C 136.408 309.808,123.702 312.920,123.386 313.236 C 123.038 313.584,125.793 321.321,126.234 321.232 C 126.511 321.177,129.602 320.411,133.103 319.529 C 136.603 318.648,141.595 317.621,144.197 317.248 L 148.928 316.568 148.597 313.406 C 148.415 311.667,148.267 309.799,148.267 309.255 C 148.267 308.048,146.287 308.017,140.155 309.128 M87.233 326.869 C 73.308 332.789,74.135 332.048,76.235 336.729 L 77.835 340.294 79.584 339.553 C 80.546 339.145,86.373 336.694,92.533 334.106 C 98.693 331.518,103.799 329.359,103.879 329.310 C 104.411 328.980,100.942 321.605,100.269 321.634 C 99.828 321.652,93.961 324.008,87.233 326.869 M0.000 342.310 L 0.000 349.890 3.151 351.927 C 9.595 356.091,9.923 356.068,11.667 351.313 C 13.141 347.297,13.167 347.414,10.533 346.235 C 7.393 344.828,4.090 341.649,1.873 337.898 L 0.000 334.729 0.000 342.310 M49.067 342.437 C 45.107 343.843,40.127 345.414,38.000 345.928 C 33.691 346.969,33.804 346.759,34.858 351.733 L 35.537 354.933 37.453 354.822 C 39.059 354.728,53.346 350.278,58.250 348.344 L 59.700 347.772 58.345 344.153 C 56.564 339.399,57.259 339.527,49.067 342.437 " stroke="none" fill="#bc0404" fill-rule="evenodd" transform="translate(-70,-70)"></path></g></svg>