<svg id="splitsvg" version="1.1" xmlns="http://www.w3.org/2000/svg" xmlns:xlink="http://www.w3.org/1999/xlink" width="1380" height="400"><g id="svgg"><path id="path0" d="M255.656 204.933 C 254.512 206.180,252.906 208.640,252.088 210.400 C 251.269 212.160,250.368 213.960,250.084 214.400 C 249.801 214.840,249.428 215.620,249.256 216.133 C 248.821 217.429,248.915 217.491,244.993 213.333 C 240.960 209.059,238.655 208.391,236.360 210.834 C 234.005 213.341,234.666 215.066,240.109 220.616 L 245.017 225.621 244.109 229.032 C 241.409 239.162,248.283 243.660,252.035 234.218 L 252.954 231.903 254.988 234.218 C 256.106 235.492,257.031 236.911,257.044 237.374 C 257.124 240.350,262.763 241.653,265.046 239.222 C 267.415 236.700,266.479 233.924,261.407 228.426 C 258.387 225.153,257.077 223.330,257.080 222.400 C 257.083 220.752,258.271 217.249,259.110 216.410 C 259.453 216.067,259.733 215.355,259.733 214.827 C 259.733 214.299,259.934 213.867,260.179 213.867 C 260.953 213.867,263.467 208.325,263.467 206.619 C 263.467 202.374,258.907 201.390,255.656 204.933 M224.187 236.936 C 218.788 242.560,210.667 253.752,210.667 255.569 C 210.667 255.799,212.308 256.813,214.315 257.824 L 217.963 259.661 221.766 253.874 C 223.858 250.691,227.628 245.923,230.145 243.279 L 234.720 238.471 232.160 235.546 C 228.889 231.808,229.154 231.762,224.187 236.936 M201.426 280.933 C 200.231 286.206,198.980 292.815,198.204 297.965 C 198.044 299.021,198.375 299.189,201.703 299.751 C 204.886 300.288,205.288 300.478,204.710 301.175 C 204.342 301.618,203.792 302.401,203.487 302.914 C 203.183 303.427,202.283 304.822,201.488 306.013 C 200.693 307.204,199.896 308.738,199.717 309.422 C 199.538 310.107,198.671 311.507,197.789 312.533 L 196.187 314.400 195.293 313.176 C 190.714 306.900,189.287 305.600,186.980 305.600 C 183.264 305.600,180.726 309.947,183.229 312.024 C 185.737 314.105,185.104 314.701,182.031 313.153 C 178.998 311.625,170.778 308.800,169.364 308.800 C 168.551 308.800,168.179 309.998,167.701 314.156 L 167.366 317.067 171.999 318.523 C 174.548 319.325,178.429 320.972,180.625 322.184 L 184.617 324.388 183.242 325.823 C 181.397 327.749,181.330 331.043,183.101 332.707 C 184.664 334.175,187.249 334.219,188.533 332.800 C 189.064 332.213,189.723 331.733,189.997 331.733 C 190.271 331.733,191.840 330.535,193.484 329.070 L 196.472 326.407 197.604 327.470 C 198.226 328.055,199.001 328.533,199.326 328.533 C 199.652 328.533,201.045 329.853,202.424 331.467 C 206.394 336.114,210.667 335.120,210.667 329.549 C 210.667 327.096,206.357 321.853,203.527 320.863 C 202.420 320.475,202.243 320.816,205.640 316.786 C 206.512 315.751,207.893 313.591,208.710 311.986 C 209.526 310.380,210.643 308.347,211.191 307.467 C 213.364 303.982,211.811 299.733,208.366 299.733 C 207.229 299.733,206.933 299.481,206.933 298.514 C 206.933 296.765,208.957 285.932,210.170 281.190 C 210.737 278.972,211.141 277.102,211.067 277.035 C 210.901 276.882,203.446 274.667,203.099 274.667 C 202.961 274.667,202.208 277.487,201.426 280.933 M140.155 309.128 C 136.408 309.808,123.702 312.920,123.386 313.236 C 123.038 313.584,125.793 321.321,126.234 321.232 C 126.511 321.177,129.602 320.411,133.103 319.529 C 136.603 318.648,141.595 317.621,144.197 317.248 L 148.928 316.568 148.597 313.406 C 148.415 311.667,148.267 309.799,148.267 309.255 C 148.267 308.048,146.287 308.017,140.155 309.128 M87.233 326.869 C 73.308 332.789,74.135 332.048,76.235 336.729 L 77.835 340.294 79.584 339.553 C 80.546 339.145,86.373 336.694,92.533 334.106 C 98.693 331.518,103.799 329.359,103.879 329.310 C 104.411 328.980,100.942 321.605,100.269 321.634 C 99.828 321.652,93.961 324.008,87.233 326.869 M0.000 342.310 L 0.000 349.890 3.151 351.927 C 9.595 356.091,9.923 356.068,11.667 351.313 C 13.141 347.297,13.167 347.414,10.533 346.235 C 7.393 344.828,4.090 341.649,1.873 337.898 L 0.000 334.729 0.000 342.310 M49.067 342.437 C 45.107 343.843,40.127 345.414,38.000 345.928 C 33.691 346.969,33.804 346.759,34.858 351.733 L 35.537 354.933 37.453 354.822 C 39.059 354.728,53.346 350.278,58.250 348.344 L 59.700 347.772 58.345 344.153 C 56.564 339.399,57.259 339.527,49.067 342.437  M -25 0 L -5 0 L -5 20 L -25 20 Z M 405 0 L 425 0 L 425 20 L 405 20 Z" stroke="#00000" stroke-width="4" fill="#bc0404" fill-rule="evenodd" transform="translate(-70,-70)"></path></g></svg>