<svg id="splitsvg" version="1.1" xmlns="http://www.w3.org/2000/svg" xmlns:xlink="http://www.w3.org/1999/xlink" width="1380" height="400"><g id="svgg"><path id="path0" d="M224.300 103.448 C 223.035 104.678,222.000 105.467,222.000 105.201 C 222.000 104.935,221.505 105.292,220.900 105.994 C 220.295 106.696,218.945 108.177,217.900 109.284 C 216.855 110.391,216.000 111.466,216.000 111.672 C 216.000 111.878,215.839 111.948,215.642 111.826 C 215.317 111.625,214.700 112.589,214.911 112.968 C 214.960 113.056,214.460 113.543,213.800 114.050 C 213.140 114.557,212.505 115.104,212.389 115.265 C 212.274 115.426,211.699 114.704,211.112 113.660 C 208.133 108.360,204.291 106.525,201.564 109.099 C 200.123 110.459,199.838 114.636,201.100 115.902 C 201.485 116.288,202.383 117.503,203.095 118.602 C 203.808 119.701,204.649 120.935,204.966 121.345 C 205.598 122.164,205.441 122.908,204.332 124.354 C 203.929 124.879,203.600 125.559,203.600 125.866 C 203.600 126.174,203.330 126.529,203.000 126.655 C 202.670 126.782,202.400 127.110,202.400 127.384 C 202.400 127.659,201.980 128.336,201.468 128.889 C 198.669 131.909,200.645 137.197,204.575 137.203 C 206.498 137.206,210.400 134.204,210.400 132.721 C 210.400 132.544,210.670 132.400,211.000 132.400 C 211.330 132.400,211.600 132.726,211.600 133.125 C 211.600 133.523,211.939 134.213,212.354 134.658 C 212.768 135.103,213.234 136.045,213.389 136.751 C 214.702 142.728,222.897 143.256,223.276 137.388 L 223.400 135.466 227.453 139.433 C 231.461 143.356,233.678 145.390,236.664 147.882 C 237.509 148.586,238.854 149.711,239.653 150.382 C 241.293 151.757,242.302 151.929,242.686 150.900 C 242.830 150.515,243.274 149.965,243.674 149.677 C 244.073 149.390,244.400 148.884,244.400 148.554 C 244.400 148.223,244.571 148.058,244.780 148.188 C 244.989 148.317,245.375 148.012,245.638 147.511 C 245.901 147.010,246.361 146.456,246.658 146.280 C 247.813 145.598,247.231 144.719,243.619 141.692 C 242.639 140.872,241.514 139.885,241.119 139.500 C 240.724 139.115,240.304 138.800,240.187 138.800 C 240.069 138.800,239.476 138.305,238.869 137.700 C 238.261 137.095,236.222 135.160,234.337 133.400 C 232.452 131.640,229.886 129.243,228.635 128.073 C 226.568 126.142,225.240 125.582,225.500 126.750 C 225.555 126.998,225.428 127.200,225.217 127.200 C 225.007 127.200,224.062 127.918,223.117 128.795 C 221.111 130.659,220.899 130.711,220.424 129.462 C 220.227 128.946,219.827 128.270,219.533 127.959 C 219.240 127.649,218.511 126.687,217.914 125.821 L 216.828 124.248 218.426 122.681 C 219.305 121.819,220.514 120.466,221.112 119.675 C 221.711 118.883,222.740 117.715,223.400 117.079 C 224.060 116.443,224.602 115.805,224.604 115.661 C 224.608 115.427,226.248 113.805,228.407 111.900 C 228.843 111.515,229.321 111.231,229.470 111.268 C 229.618 111.306,230.518 110.544,231.470 109.574 C 237.101 103.835,230.074 97.831,224.300 103.448 M261.088 158.100 C 260.756 158.595,260.060 159.446,259.542 159.991 C 259.024 160.535,258.600 161.110,258.600 161.268 C 258.600 161.425,258.195 161.932,257.700 162.393 C 257.205 162.854,256.800 163.375,256.800 163.551 C 256.800 163.949,259.848 166.798,260.283 166.806 C 260.457 166.810,261.406 167.519,262.391 168.382 C 263.377 169.245,264.244 169.890,264.318 169.815 C 264.392 169.741,265.049 170.247,265.778 170.940 C 267.937 172.995,269.238 174.000,269.738 174.000 C 269.996 174.000,270.432 174.360,270.707 174.800 C 270.982 175.240,271.475 175.600,271.803 175.600 C 272.132 175.600,272.400 175.764,272.400 175.965 C 272.400 177.411,277.023 179.353,277.482 178.100 C 277.623 177.715,278.070 177.040,278.475 176.600 C 278.881 176.160,279.837 175.061,280.601 174.157 L 281.991 172.513 281.095 171.513 C 280.603 170.963,278.670 169.376,276.800 167.987 C 274.930 166.597,273.130 165.151,272.800 164.773 C 272.470 164.395,271.795 163.964,271.300 163.816 C 270.804 163.667,270.213 163.198,269.986 162.773 C 269.758 162.348,269.351 162.000,269.082 162.000 C 268.813 162.000,268.368 161.640,268.093 161.200 C 267.818 160.760,267.325 160.400,266.997 160.400 C 266.668 160.400,266.400 160.237,266.400 160.038 C 266.400 159.590,262.844 157.200,262.177 157.200 C 261.910 157.200,261.420 157.605,261.088 158.100 M299.262 188.294 C 298.650 188.519,293.200 193.801,293.200 194.168 C 293.200 194.300,294.269 195.727,295.576 197.338 C 296.883 198.950,298.078 200.793,298.231 201.434 C 298.385 202.076,298.671 202.805,298.868 203.056 C 299.575 203.959,296.103 206.588,292.668 207.751 C 291.935 208.000,292.004 209.931,292.784 211.000 C 292.945 211.220,293.318 212.300,293.615 213.400 C 294.458 216.529,295.188 216.948,297.639 215.714 C 298.387 215.337,299.252 214.989,299.560 214.941 C 299.868 214.893,300.228 214.685,300.360 214.481 C 300.492 214.276,300.993 213.985,301.474 213.835 C 305.664 212.528,309.723 202.659,307.354 199.539 C 307.128 199.243,306.703 198.235,306.408 197.300 C 306.113 196.365,305.765 195.600,305.634 195.600 C 305.503 195.600,305.156 195.059,304.863 194.398 C 304.570 193.736,304.184 193.286,304.004 193.397 C 303.825 193.508,303.504 193.104,303.291 192.500 C 302.765 191.008,299.929 188.047,299.262 188.294 M256.312 203.709 C 255.714 204.419,254.865 205.426,254.424 205.948 C 253.984 206.469,253.516 207.234,253.385 207.648 C 253.254 208.061,252.985 208.400,252.789 208.400 C 252.593 208.400,252.216 209.120,251.953 210.000 C 251.689 210.880,251.336 211.600,251.168 211.600 C 251.001 211.600,250.754 212.101,250.619 212.713 C 250.485 213.325,249.970 214.497,249.474 215.317 L 248.574 216.809 246.787 215.129 C 245.804 214.205,245.270 213.602,245.600 213.790 C 245.930 213.977,245.750 213.669,245.200 213.105 C 244.650 212.540,243.579 211.431,242.819 210.639 C 239.833 207.526,234.953 209.415,234.912 213.700 C 234.902 214.745,235.053 215.600,235.247 215.600 C 235.441 215.600,235.600 215.804,235.600 216.054 C 235.600 216.304,236.005 216.904,236.500 217.387 C 236.995 217.870,238.405 219.336,239.633 220.644 C 240.862 221.953,242.662 223.719,243.633 224.570 C 244.605 225.420,245.198 226.004,244.952 225.867 C 244.656 225.702,244.323 226.635,243.972 228.608 C 243.680 230.254,243.296 231.600,243.118 231.600 C 242.159 231.600,242.929 236.606,244.076 237.821 C 246.699 240.603,251.491 238.597,252.196 234.422 C 252.565 232.240,252.914 232.147,254.258 233.870 C 254.886 234.676,255.715 235.615,256.100 235.957 C 256.485 236.298,256.800 236.952,256.800 237.410 C 256.800 240.579,262.647 242.034,265.122 239.481 C 267.611 236.913,266.893 233.619,262.993 229.719 C 261.567 228.293,260.400 227.016,260.400 226.882 C 260.400 226.748,259.827 226.047,259.126 225.324 L 257.853 224.010 259.126 223.566 C 259.827 223.322,260.400 222.949,260.400 222.737 C 260.400 222.526,260.588 222.469,260.818 222.611 C 261.047 222.753,261.452 222.697,261.718 222.487 C 261.983 222.276,262.920 221.877,263.800 221.600 C 264.680 221.323,265.580 220.955,265.800 220.784 C 266.339 220.363,268.438 220.029,271.725 219.840 C 273.224 219.754,274.518 219.615,274.602 219.531 C 274.928 219.206,274.261 210.439,273.926 210.646 C 273.730 210.767,271.892 210.852,269.841 210.836 C 267.420 210.816,265.706 211.001,264.956 211.362 C 262.652 212.471,262.000 212.529,262.000 211.627 C 262.000 211.172,262.135 210.799,262.300 210.797 C 262.912 210.791,263.600 208.578,263.600 206.619 C 263.600 202.577,258.860 200.684,256.312 203.709 M226.914 233.699 C 226.081 234.414,225.258 235.221,225.083 235.494 C 224.909 235.766,223.919 236.853,222.883 237.909 C 220.196 240.650,218.115 243.011,218.700 242.656 C 218.975 242.489,219.200 242.513,219.200 242.709 C 219.200 242.905,218.795 243.282,218.299 243.547 C 217.803 243.812,217.095 244.518,216.724 245.115 C 216.353 245.712,215.534 246.920,214.902 247.801 C 212.051 251.778,209.490 257.010,210.786 256.208 C 211.014 256.068,211.200 256.140,211.200 256.369 C 211.200 256.598,211.650 256.898,212.200 257.036 C 212.750 257.174,213.200 257.433,213.200 257.612 C 213.200 257.791,213.870 258.159,214.689 258.429 C 215.508 258.700,216.421 259.164,216.718 259.460 C 217.503 260.246,218.443 260.121,218.684 259.200 C 218.799 258.760,219.031 258.400,219.200 258.400 C 219.503 258.400,220.123 256.871,220.047 256.312 C 220.026 256.154,220.366 255.832,220.804 255.598 C 221.242 255.364,221.600 254.930,221.600 254.635 C 221.600 254.340,221.868 253.876,222.196 253.604 C 222.523 253.332,222.704 252.969,222.598 252.797 C 222.492 252.625,222.674 252.381,223.002 252.254 C 223.331 252.128,223.600 251.839,223.600 251.613 C 223.600 251.386,223.960 250.840,224.400 250.400 C 224.840 249.960,225.200 249.319,225.200 248.976 C 225.200 248.633,225.367 248.456,225.571 248.582 C 225.775 248.708,226.347 248.091,226.842 247.210 C 227.337 246.329,228.070 245.505,228.471 245.377 C 228.872 245.250,229.200 244.998,229.200 244.817 C 229.200 244.635,230.460 243.265,232.000 241.772 C 235.398 238.477,235.390 238.814,232.168 235.284 C 229.161 231.990,228.972 231.933,226.914 233.699 M202.692 274.664 C 202.582 274.849,202.361 275.792,202.201 276.759 C 202.041 277.727,201.673 279.085,201.384 279.776 C 201.095 280.468,200.732 282.152,200.578 283.517 C 200.423 284.883,200.151 286.000,199.973 286.000 C 199.795 286.000,199.656 286.315,199.663 286.700 C 199.692 288.208,198.716 294.646,198.341 295.427 C 198.122 295.882,198.001 296.956,198.071 297.814 C 198.212 299.525,198.393 299.614,202.935 300.207 C 204.749 300.444,204.830 300.503,204.235 301.161 C 203.886 301.547,203.600 302.145,203.600 302.489 C 203.600 302.833,203.358 303.207,203.063 303.321 C 202.767 303.434,201.912 304.758,201.163 306.263 C 200.413 307.769,199.665 309.060,199.500 309.133 C 199.335 309.207,199.200 309.572,199.200 309.944 C 199.200 310.317,198.885 310.921,198.500 311.286 C 198.115 311.651,197.444 312.401,197.008 312.952 C 196.141 314.049,195.515 313.737,194.595 311.747 C 193.885 310.213,190.285 306.382,189.028 305.823 C 184.111 303.637,179.569 308.947,183.289 312.534 C 183.935 313.158,184.389 313.744,184.297 313.836 C 184.087 314.047,180.648 312.308,180.467 311.900 C 180.393 311.735,179.986 311.600,179.561 311.600 C 179.137 311.600,178.387 311.392,177.895 311.138 C 175.939 310.126,175.532 309.991,173.012 309.513 C 171.576 309.241,170.400 308.879,170.400 308.709 C 170.400 308.539,169.950 308.400,169.400 308.400 C 168.556 308.400,168.400 308.587,168.400 309.600 C 168.400 310.260,168.206 310.800,167.969 310.800 C 167.732 310.800,167.577 311.385,167.625 312.100 C 167.672 312.815,167.583 313.698,167.427 314.062 C 166.667 315.836,167.328 317.384,169.000 317.746 C 169.880 317.936,170.960 318.243,171.400 318.427 C 171.840 318.612,172.965 318.980,173.900 319.245 C 174.835 319.510,175.600 319.878,175.600 320.063 C 175.600 320.248,175.811 320.400,176.068 320.400 C 176.574 320.400,181.670 322.788,182.000 323.179 C 182.110 323.310,182.723 323.646,183.362 323.928 L 184.524 324.439 183.062 325.937 C 181.102 327.943,180.943 330.975,182.699 332.836 C 184.211 334.438,187.416 334.527,188.858 333.007 C 189.376 332.461,190.019 332.011,190.286 332.007 C 190.553 332.003,190.967 331.635,191.206 331.189 C 191.445 330.743,191.777 330.462,191.944 330.565 C 192.111 330.668,192.743 330.228,193.349 329.586 C 193.954 328.944,194.946 328.066,195.552 327.634 L 196.654 326.849 197.789 327.825 C 198.414 328.361,199.134 328.800,199.391 328.800 C 199.648 328.800,200.475 329.552,201.229 330.472 C 205.159 335.264,207.102 336.019,209.223 333.574 C 209.650 333.081,210.003 332.840,210.006 333.039 C 210.009 333.237,210.187 333.130,210.400 332.800 C 210.613 332.470,210.791 331.008,210.794 329.550 L 210.800 326.900 208.417 324.450 C 207.107 323.103,205.875 322.000,205.680 322.000 C 204.648 322.000,203.157 320.134,203.777 319.619 C 204.120 319.335,204.400 318.923,204.400 318.705 C 204.400 318.487,204.995 317.744,205.722 317.054 C 206.450 316.364,207.648 314.540,208.386 313.000 C 209.124 311.460,210.329 309.252,211.064 308.092 C 213.657 304.002,212.445 299.600,208.725 299.600 L 207.200 299.600 207.224 297.900 C 207.237 296.965,207.394 295.390,207.572 294.400 C 208.383 289.893,209.302 285.348,209.513 284.800 C 209.640 284.470,209.793 283.930,209.855 283.600 C 210.290 281.253,210.916 278.861,211.295 278.092 C 211.903 276.861,211.440 276.489,208.575 275.906 C 207.269 275.640,206.110 275.299,205.999 275.148 C 205.673 274.702,202.909 274.298,202.692 274.664 M144.323 308.210 C 144.208 308.326,143.413 308.441,142.557 308.466 C 141.700 308.491,140.820 308.641,140.600 308.800 C 140.380 308.959,139.300 309.219,138.200 309.376 C 133.937 309.988,133.394 310.098,133.200 310.389 C 133.043 310.625,130.605 311.160,128.733 311.370 C 128.587 311.387,128.344 311.523,128.194 311.672 C 128.044 311.822,127.669 311.848,127.361 311.730 C 127.052 311.611,126.800 311.693,126.800 311.912 C 126.800 312.130,126.007 312.428,125.037 312.573 C 123.055 312.871,123.073 312.795,124.005 316.900 C 124.292 318.165,124.679 319.200,124.864 319.200 C 125.049 319.200,125.200 319.628,125.200 320.151 C 125.200 321.202,126.180 322.280,126.566 321.654 C 126.697 321.443,127.568 321.144,128.502 320.990 C 129.436 320.836,130.807 320.461,131.549 320.155 C 132.291 319.850,134.085 319.410,135.534 319.179 C 136.983 318.947,138.356 318.607,138.585 318.423 C 138.813 318.239,140.979 317.866,143.398 317.594 C 145.818 317.323,148.068 317.059,148.398 317.008 C 149.030 316.911,149.053 315.969,148.556 310.500 L 148.329 308.000 146.431 308.000 C 145.387 308.000,144.439 308.095,144.323 308.210 M99.600 321.490 C 99.600 321.679,98.925 322.035,98.100 322.280 C 95.553 323.035,91.807 324.551,91.667 324.884 C 91.593 325.058,91.199 325.200,90.790 325.200 C 90.382 325.200,89.934 325.383,89.796 325.607 C 89.658 325.830,89.398 325.922,89.218 325.811 C 89.038 325.700,88.668 325.877,88.396 326.204 C 88.124 326.532,87.621 326.800,87.277 326.800 C 86.934 326.800,85.876 327.160,84.926 327.600 C 80.617 329.597,79.731 329.970,78.700 330.220 C 78.095 330.367,77.600 330.642,77.600 330.831 C 77.600 331.020,77.330 331.071,77.000 330.945 C 76.670 330.818,76.400 330.914,76.400 331.157 C 76.400 331.401,76.051 331.600,75.624 331.600 C 75.197 331.600,74.733 331.784,74.594 332.010 C 74.273 332.529,74.768 334.867,75.150 334.631 C 75.306 334.535,75.457 334.767,75.486 335.148 C 75.542 335.893,77.516 340.400,77.786 340.400 C 77.875 340.400,78.455 340.190,79.074 339.934 C 79.693 339.677,80.290 339.437,80.400 339.400 C 80.510 339.363,81.107 339.123,81.726 338.866 C 82.345 338.610,82.942 338.400,83.051 338.400 C 83.160 338.400,84.183 337.975,85.325 337.455 C 90.477 335.108,91.227 334.800,91.796 334.800 C 92.128 334.800,92.400 334.640,92.400 334.443 C 92.400 334.247,92.895 333.965,93.500 333.816 C 94.105 333.667,95.410 333.178,96.400 332.729 C 99.739 331.217,100.595 330.859,102.125 330.339 C 103.834 329.759,104.774 328.893,104.155 328.470 C 103.938 328.321,103.525 327.390,103.236 326.400 C 102.948 325.410,102.585 324.510,102.431 324.400 C 102.277 324.290,101.976 323.570,101.762 322.800 C 101.408 321.526,99.600 320.430,99.600 321.490 M0.000 342.387 L 0.000 349.974 2.136 351.587 C 3.311 352.474,4.481 353.200,4.736 353.200 C 4.991 353.200,5.200 353.410,5.200 353.667 C 5.200 353.923,5.318 354.015,5.463 353.870 C 5.608 353.725,5.950 353.792,6.222 354.019 C 6.495 354.245,7.141 354.512,7.658 354.611 C 8.175 354.711,8.658 354.974,8.732 355.196 C 9.182 356.547,10.800 355.254,10.800 353.544 C 10.800 353.109,10.953 352.847,11.139 352.963 C 11.326 353.078,11.717 352.180,12.008 350.968 C 12.299 349.755,12.686 348.670,12.868 348.558 C 13.646 348.077,13.093 347.115,11.709 346.536 C 8.832 345.334,3.600 341.102,3.600 339.976 C 3.600 339.743,3.453 339.644,3.273 339.755 C 3.093 339.866,2.707 339.299,2.416 338.493 C 2.125 337.688,1.642 336.785,1.343 336.486 C 1.044 336.187,0.800 335.686,0.800 335.371 C 0.800 335.057,0.620 334.800,0.400 334.800 C 0.147 334.800,0.000 337.596,0.000 342.387 M55.893 339.840 C 55.791 339.942,55.369 340.108,54.954 340.210 C 52.957 340.699,48.796 342.262,48.986 342.452 C 49.104 342.570,48.975 342.667,48.700 342.668 C 47.419 342.671,44.027 343.720,44.231 344.050 C 44.356 344.253,44.311 344.376,44.130 344.322 C 43.652 344.181,38.673 345.266,38.200 345.615 C 37.980 345.777,37.036 346.036,36.102 346.190 C 33.866 346.558,33.814 346.699,34.421 350.794 C 35.093 355.327,35.509 355.938,37.446 355.238 C 38.239 354.951,39.429 354.631,40.090 354.527 C 40.750 354.423,42.346 354.001,43.634 353.589 C 44.923 353.177,46.613 352.721,47.389 352.576 C 48.165 352.430,48.800 352.180,48.800 352.019 C 48.800 351.859,49.790 351.506,51.000 351.235 C 52.210 350.964,53.200 350.599,53.200 350.424 C 53.200 350.248,53.807 350.006,54.548 349.886 C 55.647 349.708,59.431 348.235,59.928 347.792 C 59.998 347.729,59.683 346.860,59.228 345.861 C 58.772 344.862,58.400 343.775,58.400 343.446 C 58.400 343.116,58.217 342.734,57.993 342.596 C 57.770 342.458,57.691 342.177,57.817 341.972 C 57.944 341.768,57.857 341.600,57.624 341.600 C 57.391 341.600,57.200 341.259,57.200 340.843 C 57.200 340.130,56.297 339.437,55.893 339.840" stroke="#00000" stroke-width="4" fill="#bc0404" fill-rule="evenodd" transform="translate(-70,-70)"></path></g></svg>